<svg width="100%" height="100%" id="svg" viewBox="0 0 1440 690"
	xmlns="http://www.w3.org/2000/svg" class="transition duration-300 ease-in-out delay-150">
	<defs>
		<linearGradient id="gradient" x1="100%" y1="55%" x2="0%" y2="45%">
			<stop offset="5%" stop-color="#a448f0"></stop>
			<stop offset="95%" stop-color="#f0487d"></stop>
		</linearGradient>
	</defs>
	<path d="M 0,700 L 0,105 C 82.20095693779902,90.58851674641147 164.40191387559804,76.17703349282296 257,71 C 349.59808612440196,65.82296650717704 452.5933014354067,69.88038277511963 571,80 C 689.4066985645933,90.11961722488037 823.224880382775,106.30143540669856 916,101 C 1008.775119617225,95.69856459330144 1060.507177033493,68.91387559808612 1141,66 C 1221.492822966507,63.08612440191387 1330.7464114832535,84.04306220095694 1440,105 L 1440,700 L 0,700 Z" stroke="none" stroke-width="0" fill="url(#gradient)" fill-opacity="0.265" class="transition-all duration-300 ease-in-out delay-150 path-0"></path>
	<defs>
		<linearGradient id="gradient" x1="100%" y1="55%" x2="0%" y2="45%">
			<stop offset="5%" stop-color="#a448f0"></stop>
			<stop offset="95%" stop-color="#f0487d"></stop>
		</linearGradient>
	</defs>
	<path d="M 0,700 L 0,245 C 119.38755980861242,221.69856459330143 238.77511961722485,198.39712918660285 340,209 C 441.22488038277515,219.60287081339715 524.2870813397129,264.1100478468899 609,284 C 693.7129186602871,303.8899521531101 780.0765550239234,299.1626794258373 884,295 C 987.9234449760766,290.8373205741627 1109.4066985645932,287.2392344497608 1205,279 C 1300.5933014354068,270.7607655502392 1370.2966507177034,257.88038277511964 1440,245 L 1440,700 L 0,700 Z" stroke="none" stroke-width="0" fill="url(#gradient)" fill-opacity="0.4" class="transition-all duration-300 ease-in-out delay-150 path-1"></path>
	<defs>
		<linearGradient id="gradient" x1="100%" y1="55%" x2="0%" y2="45%">
			<stop offset="5%" stop-color="#a448f0"></stop>
			<stop offset="95%" stop-color="#f0487d"></stop>
		</linearGradient>
	</defs>
	<path d="M 0,700 L 0,385 C 116.42105263157893,385.1531100478469 232.84210526315786,385.3062200956938 317,372 C 401.15789473684214,358.6937799043062 453.0526315789474,331.9282296650718 547,334 C 640.9473684210526,336.0717703349282 776.9473684210525,366.98086124401914 894,373 C 1011.0526315789475,379.01913875598086 1109.157894736842,360.1483253588517 1197,358 C 1284.842105263158,355.8516746411483 1362.421052631579,370.42583732057415 1440,385 L 1440,700 L 0,700 Z" stroke="none" stroke-width="0" fill="url(#gradient)" fill-opacity="0.53" class="transition-all duration-300 ease-in-out delay-150 path-2"></path>
	<defs>
		<linearGradient id="gradient" x1="100%" y1="55%" x2="0%" y2="45%">
			<stop offset="5%" stop-color="#a448f0"></stop>
			<stop offset="95%" stop-color="#f0487d"></stop>
		</linearGradient>
	</defs>
	<path d="M 0,700 L 0,525 C 116.95693779904306,526.866028708134 233.91387559808612,528.7320574162679 324,514 C 414.0861244019139,499.267942583732 477.3014354066986,467.9377990430622 569,481 C 660.6985645933014,494.0622009569378 780.8803827751195,551.5167464114833 889,557 C 997.1196172248805,562.4832535885167 1093.1770334928228,515.9952153110048 1183,502 C 1272.8229665071772,488.0047846889952 1356.4114832535886,506.5023923444976 1440,525 L 1440,700 L 0,700 Z" stroke="none" stroke-width="0" fill="url(#gradient)" fill-opacity="1" class="transition-all duration-300 ease-in-out delay-150 path-3"></path>
</svg>